<svg xmlns="http://www.w3.org/2000/svg" width="56" height="57" viewBox="0 0 56 57" fill="none">
  <mask id="mask0_261_4494" style="mask-type:alpha" maskUnits="userSpaceOnUse" x="0" y="0" width="56" height="57">
    <rect y="0.5" width="56" height="56" fill="#D9D9D9"/>
  </mask>
  <g mask="url(#mask0_261_4494)">
    <path d="M49.0221 29.8235H43.6601C43.2848 29.8235 42.9704 29.6958 42.7168 29.4403C42.4633 29.1844 42.3365 28.8672 42.3365 28.4889C42.3365 28.1105 42.4633 27.797 42.7168 27.5485C42.9704 27.3004 43.2848 27.1764 43.6601 27.1764H49.0221C49.3977 27.1764 49.7123 27.3041 49.9659 27.5596C50.2195 27.8155 50.3462 28.1326 50.3462 28.511C50.3462 28.8894 50.2195 29.2029 49.9659 29.4514C49.7123 29.6995 49.3977 29.8235 49.0221 29.8235ZM39.4466 40.0902C39.6831 39.8059 39.9751 39.6325 40.3228 39.5699C40.6705 39.5069 41.0006 39.5936 41.3133 39.83L45.6166 43.0471C45.9156 43.2836 46.0966 43.5756 46.1596 43.9233C46.2223 44.2709 46.1355 44.5937 45.8995 44.8916C45.663 45.1907 45.3673 45.3717 45.0122 45.4347C44.6568 45.4973 44.3303 45.4104 44.0328 45.1739L39.7068 41.9569C39.4225 41.7204 39.2491 41.4284 39.1865 41.0807C39.1235 40.733 39.2102 40.4029 39.4466 40.0902ZM45.5267 13.8629L41.3536 17.0444C41.0409 17.2805 40.7107 17.3672 40.3631 17.3046C40.0154 17.2416 39.7233 17.0606 39.4869 16.7615C39.2508 16.4772 39.1641 16.158 39.2267 15.8037C39.2897 15.449 39.4632 15.1537 39.7471 14.9176L43.943 11.7361C44.2405 11.4997 44.567 11.4129 44.9224 11.4759C45.2775 11.5385 45.5732 11.7194 45.8097 12.0184C46.0457 12.3027 46.1324 12.6222 46.0698 12.9769C46.0068 13.3311 45.8258 13.6265 45.5267 13.8629ZM12.6763 34.5129H9.0194C8.10551 34.5129 7.31606 34.1804 6.65106 33.5154C5.98606 32.8504 5.65356 32.061 5.65356 31.1471V25.8528C5.65356 24.9389 5.98606 24.1494 6.65106 23.4844C7.31606 22.8194 8.10551 22.4869 9.0194 22.4869H18.8911L26.8332 17.7579C27.3866 17.4226 27.9437 17.4189 28.5045 17.7468C29.0656 18.0746 29.3462 18.5613 29.3462 19.2069V37.793C29.3462 38.4386 29.0656 38.9253 28.5045 39.2531C27.9437 39.5809 27.3866 39.5772 26.8332 39.242L18.8911 34.5129H15.3235V42.2981C15.3235 42.6734 15.1957 42.9878 14.9402 43.2414C14.6843 43.4949 14.3672 43.6217 13.9888 43.6217C13.6104 43.6217 13.297 43.4949 13.0485 43.2414C12.8004 42.9878 12.6763 42.6734 12.6763 42.2981V34.5129ZM32.5767 35.7782V21.2217C33.4922 22.0504 34.2295 23.0963 34.7887 24.3594C35.3483 25.6226 35.6282 27.0045 35.6282 28.5052C35.6282 30.0063 35.3483 31.3867 34.7887 32.6463C34.2295 33.9055 33.4922 34.9495 32.5767 35.7782Z" fill="#E2E6ED"/>
  </g>
</svg>